<svg width="15" height="15" viewBox="0 0 15 15" fill="none" xmlns="http://www.w3.org/2000/svg">
<path opacity="0.2" d="M15 7.5C15 8.98336 14.5601 10.4334 13.736 11.6668C12.9119 12.9001 11.7406 13.8614 10.3701 14.4291C8.99968 14.9968 7.49168 15.1453 6.03683 14.8559C4.58197 14.5665 3.2456 13.8522 2.1967 12.8033C1.14781 11.7544 0.433503 10.418 0.144114 8.96318C-0.145275 7.50832 0.00324963 6.00032 0.570907 4.62987C1.13856 3.25943 2.09986 2.08809 3.33323 1.26398C4.5666 0.439867 6.01664 0 7.5 0C8.48492 0 9.46019 0.193993 10.3701 0.570904C11.2801 0.947814 12.1069 1.50026 12.8033 2.1967C13.4997 2.89314 14.0522 3.71993 14.4291 4.62987C14.806 5.53982 15 6.51509 15 7.5Z" fill="#1A1A1A"/>
</svg>
