<svg width="24" height="16" viewBox="0 0 24 16" fill="none" xmlns="http://www.w3.org/2000/svg">
<path d="M23.5314 7.54344C23.4967 7.4675 22.6754 5.64406 20.8614 3.83C18.4342 1.40656 15.3751 0.125 12.0001 0.125C8.62512 0.125 5.56606 1.40656 3.14169 3.83C1.32762 5.64406 0.506374 7.4675 0.468874 7.54344C0.405361 7.68743 0.372559 7.84309 0.372559 8.00047C0.372559 8.15785 0.405361 8.3135 0.468874 8.4575C0.503561 8.53438 1.32481 10.3569 3.13981 12.1709C5.56606 14.5944 8.62512 15.875 12.0001 15.875C15.3751 15.875 18.4342 14.5944 20.8576 12.1709C22.6726 10.3569 23.4939 8.53438 23.5286 8.4575C23.5925 8.3137 23.6258 8.15815 23.6263 8.00077C23.6268 7.84338 23.5944 7.68763 23.5314 7.54344ZM19.2132 10.6372C17.2004 12.6191 14.7742 13.625 12.0001 13.625C9.22606 13.625 6.79981 12.6191 4.78981 10.6362C3.99888 9.85365 3.31854 8.96671 2.76762 8C3.3187 7.03368 3.99903 6.14707 4.78981 5.36469C6.80075 3.38094 9.22606 2.375 12.0001 2.375C14.7742 2.375 17.1995 3.38094 19.2104 5.36469C20.0013 6.147 20.6816 7.03362 21.2326 8C20.6816 8.96665 20.0013 9.85358 19.2104 10.6362L19.2132 10.6372ZM12.0001 3.875C11.1843 3.875 10.3867 4.11693 9.7084 4.57019C9.03004 5.02345 8.50133 5.66769 8.18912 6.42143C7.87691 7.17518 7.79522 8.00458 7.95439 8.80475C8.11355 9.60492 8.50642 10.3399 9.08331 10.9168C9.6602 11.4937 10.3952 11.8866 11.1954 12.0457C11.9955 12.2049 12.8249 12.1232 13.5787 11.811C14.3324 11.4988 14.9767 10.9701 15.4299 10.2917C15.8832 9.61337 16.1251 8.81585 16.1251 8C16.1239 6.90636 15.6889 5.85787 14.9156 5.08455C14.1423 4.31124 13.0938 3.87624 12.0001 3.875ZM12.0001 9.875C11.6293 9.875 11.2668 9.76503 10.9584 9.55901C10.6501 9.35298 10.4098 9.06014 10.2678 8.71753C10.1259 8.37492 10.0888 7.99792 10.1612 7.63421C10.2335 7.27049 10.4121 6.9364 10.6743 6.67417C10.9365 6.41195 11.2706 6.23337 11.6343 6.16103C11.998 6.08868 12.375 6.12581 12.7177 6.26773C13.0603 6.40964 13.3531 6.64996 13.5591 6.95831C13.7652 7.26665 13.8751 7.62916 13.8751 8C13.8751 8.49728 13.6776 8.97419 13.3259 9.32582C12.9743 9.67746 12.4974 9.875 12.0001 9.875Z" fill="#1A1A1A"/>
</svg>
