<svg width="24" height="21" viewBox="0 0 24 21" fill="none" xmlns="http://www.w3.org/2000/svg">
<path d="M22.5 18.125H21.375V9.83281C21.3746 9.57392 21.3208 9.3179 21.2169 9.08077C21.113 8.84364 20.9613 8.6305 20.7712 8.45468L13.2759 1.37937L13.2609 1.36531C12.9165 1.05008 12.4665 0.875244 11.9995 0.875244C11.5326 0.875244 11.0826 1.05008 10.7381 1.36531L10.7222 1.37937L3.22875 8.45468C3.03872 8.6305 2.88702 8.84364 2.78313 9.08077C2.67924 9.3179 2.62541 9.57392 2.625 9.83281V18.125H1.5C1.20163 18.125 0.915483 18.2435 0.704505 18.4545C0.493526 18.6655 0.375 18.9516 0.375 19.25C0.375 19.5484 0.493526 19.8345 0.704505 20.0455C0.915483 20.2565 1.20163 20.375 1.5 20.375H22.5C22.7984 20.375 23.0845 20.2565 23.2955 20.0455C23.5065 19.8345 23.625 19.5484 23.625 19.25C23.625 18.9516 23.5065 18.6655 23.2955 18.4545C23.0845 18.2435 22.7984 18.125 22.5 18.125ZM4.875 9.995L12 3.26843L19.125 9.995V18.125H15.375V14C15.375 13.7538 15.3265 13.5099 15.2323 13.2825C15.138 13.055 14.9999 12.8483 14.8258 12.6742C14.6517 12.5001 14.445 12.362 14.2175 12.2677C13.99 12.1735 13.7462 12.125 13.5 12.125H10.5C10.0027 12.125 9.52581 12.3225 9.17418 12.6742C8.82254 13.0258 8.625 13.5027 8.625 14V18.125H4.875V9.995ZM13.125 18.125H10.875V14.375H13.125V18.125Z" fill="#1A1A1A"/>
</svg>
