<svg width="20" height="20" viewBox="0 0 20 20" fill="none" xmlns="http://www.w3.org/2000/svg">
<path d="M19.5306 18.4694L14.8375 13.7762C16.2004 12.1416 16.8807 10.0445 16.7368 7.92113C16.5928 5.79774 15.6358 3.81159 14.0648 2.37586C12.4937 0.940126 10.4296 0.165363 8.30189 0.212745C6.17416 0.260127 4.1466 1.12601 2.64103 2.63025C1.13546 4.13449 0.267789 6.16128 0.218527 8.28897C0.169264 10.4167 0.942202 12.4814 2.37654 14.0537C3.81088 15.626 5.79619 16.5848 7.91945 16.7306C10.0427 16.8764 12.1404 16.198 13.7762 14.8366L18.4694 19.5306C18.5391 19.6003 18.6218 19.6556 18.7128 19.6933C18.8039 19.731 18.9015 19.7504 19 19.7504C19.0985 19.7504 19.1961 19.731 19.2872 19.6933C19.3782 19.6556 19.4609 19.6003 19.5306 19.5306C19.6003 19.4609 19.6556 19.3782 19.6933 19.2872C19.731 19.1961 19.7504 19.0985 19.7504 19C19.7504 18.9015 19.731 18.8039 19.6933 18.7128C19.6556 18.6218 19.6003 18.5391 19.5306 18.4694ZM1.75 8.5C1.75 7.16497 2.14588 5.85993 2.88758 4.7499C3.62928 3.63987 4.68348 2.7747 5.91688 2.26381C7.15029 1.75292 8.50749 1.61925 9.81686 1.8797C11.1262 2.14015 12.329 2.78302 13.273 3.72703C14.217 4.67103 14.8598 5.87377 15.1203 7.18314C15.3807 8.49251 15.2471 9.84971 14.7362 11.0831C14.2253 12.3165 13.3601 13.3707 12.2501 14.1124C11.1401 14.8541 9.83502 15.25 8.5 15.25C6.7104 15.248 4.99466 14.5362 3.72922 13.2708C2.46378 12.0053 1.75198 10.2896 1.75 8.5Z" fill="#1A1A1A"/>
</svg>
