<svg width="21" height="21" viewBox="0 0 21 21" fill="none" xmlns="http://www.w3.org/2000/svg">
<path d="M19.5756 5.61312L15.3869 1.42344C15.2128 1.24925 15.006 1.11107 14.7785 1.01679C14.551 0.922516 14.3071 0.873993 14.0608 0.873993C13.8145 0.873993 13.5706 0.922516 13.3431 1.01679C13.1155 1.11107 12.9088 1.24925 12.7347 1.42344L1.17438 12.9847C0.999635 13.1583 0.861091 13.3649 0.766785 13.5924C0.67248 13.82 0.624289 14.064 0.625008 14.3103V18.5C0.625008 18.9973 0.822552 19.4742 1.17418 19.8258C1.52581 20.1775 2.00273 20.375 2.50001 20.375H6.68969C6.93601 20.3757 7.18001 20.3275 7.40756 20.2331C7.63511 20.1388 7.84168 20.0003 8.01532 19.8256L19.5756 8.26437C19.9271 7.91276 20.1246 7.43593 20.1246 6.93875C20.1246 6.44157 19.9271 5.96474 19.5756 5.61312ZM6.53126 18.125H2.87501V14.4687L10.75 6.59375L14.4063 10.25L6.53126 18.125ZM16 8.65625L12.3438 5L14.0631 3.28062L17.7194 6.93687L16 8.65625Z" fill="#1A1A1A"/>
</svg>
