<svg width="20" height="22" viewBox="0 0 20 22" fill="none" xmlns="http://www.w3.org/2000/svg">
<path d="M19.1212 14.5559C18.3075 13.1562 17.8753 11.1472 17.8753 8.75C17.8753 6.66142 17.0456 4.65838 15.5687 3.18153C14.0919 1.70469 12.0889 0.875 10.0003 0.875C7.91169 0.875 5.90865 1.70469 4.4318 3.18153C2.95496 4.65838 2.12527 6.66142 2.12527 8.75C2.12527 11.1481 1.69496 13.1562 0.881208 14.5559C0.715159 14.8414 0.62714 15.1656 0.625988 15.4958C0.624836 15.8261 0.710592 16.1509 0.874645 16.4375C1.03766 16.7243 1.27427 16.9624 1.56004 17.1272C1.84581 17.292 2.17039 17.3775 2.50027 17.375H5.89215C5.98517 18.4003 6.45822 19.3537 7.21836 20.048C7.9785 20.7423 8.97078 21.1273 10.0003 21.1273C11.0298 21.1273 12.022 20.7423 12.7822 20.048C13.5423 19.3537 14.0154 18.4003 14.1084 17.375H17.5003C17.8297 17.377 18.1537 17.2913 18.4389 17.1265C18.7241 16.9617 18.9603 16.7239 19.1231 16.4375C19.2878 16.1513 19.3744 15.8267 19.3741 15.4965C19.3738 15.1662 19.2865 14.8418 19.1212 14.5559ZM10.0003 18.875C9.56803 18.8751 9.14902 18.7258 8.81418 18.4525C8.47934 18.1791 8.24922 17.7985 8.16277 17.375H11.8378C11.7513 17.7985 11.5212 18.1791 11.1864 18.4525C10.8515 18.7258 10.4325 18.8751 10.0003 18.875ZM3.12465 15.125C3.95433 13.4375 4.37527 11.2944 4.37527 8.75C4.37527 7.25816 4.9679 5.82742 6.02279 4.77252C7.07769 3.71763 8.50843 3.125 10.0003 3.125C11.4921 3.125 12.9229 3.71763 13.9777 4.77252C15.0326 5.82742 15.6253 7.25816 15.6253 8.75C15.6253 11.2934 16.0453 13.4375 16.875 15.125H3.12465Z" fill="#1A1A1A"/>
</svg>
