<svg width="20" height="20" viewBox="0 0 20 20" fill="none" xmlns="http://www.w3.org/2000/svg">
<path opacity="0.2" d="M19.2806 11.3438L11.3437 19.2806C11.2031 19.4212 11.0124 19.5001 10.8136 19.5001C10.6148 19.5001 10.4241 19.4212 10.2834 19.2806L0.969375 9.96937C0.828988 9.82883 0.750092 9.63834 0.75 9.43969V0.75H9.43969C9.63833 0.750092 9.82883 0.828988 9.96937 0.969375L19.2806 10.2806C19.3506 10.3503 19.4062 10.4331 19.4441 10.5244C19.482 10.6156 19.5015 10.7134 19.5015 10.8122C19.5015 10.911 19.482 11.0088 19.4441 11.1C19.4062 11.1912 19.3506 11.2741 19.2806 11.3438Z" fill="#1A1A1A"/>
</svg>
