<svg width="20" height="20" viewBox="0 0 20 20" fill="none" xmlns="http://www.w3.org/2000/svg">
<path d="M10 0.25C8.07164 0.25 6.18657 0.821828 4.58319 1.89317C2.97982 2.96451 1.73013 4.48726 0.992179 6.26884C0.254225 8.05042 0.061142 10.0108 0.437348 11.9021C0.813554 13.7934 1.74215 15.5307 3.10571 16.8943C4.46928 18.2579 6.20656 19.1865 8.09787 19.5627C9.98919 19.9389 11.9496 19.7458 13.7312 19.0078C15.5127 18.2699 17.0355 17.0202 18.1068 15.4168C19.1782 13.8134 19.75 11.9284 19.75 10C19.7473 7.41498 18.7192 4.93661 16.8913 3.10872C15.0634 1.28084 12.585 0.25273 10 0.25ZM10 18.25C8.36831 18.25 6.77326 17.7661 5.41655 16.8596C4.05984 15.9531 3.00242 14.6646 2.378 13.1571C1.75358 11.6496 1.5902 9.99085 1.90853 8.3905C2.22685 6.79016 3.01259 5.32015 4.16637 4.16637C5.32016 3.01259 6.79017 2.22685 8.39051 1.90852C9.99085 1.59019 11.6497 1.75357 13.1571 2.37799C14.6646 3.00242 15.9531 4.05984 16.8596 5.41655C17.7661 6.77325 18.25 8.3683 18.25 10C18.2475 12.1873 17.3775 14.2843 15.8309 15.8309C14.2843 17.3775 12.1873 18.2475 10 18.25ZM9.25 10.75V5.5C9.25 5.30109 9.32902 5.11032 9.46967 4.96967C9.61033 4.82902 9.80109 4.75 10 4.75C10.1989 4.75 10.3897 4.82902 10.5303 4.96967C10.671 5.11032 10.75 5.30109 10.75 5.5V10.75C10.75 10.9489 10.671 11.1397 10.5303 11.2803C10.3897 11.421 10.1989 11.5 10 11.5C9.80109 11.5 9.61033 11.421 9.46967 11.2803C9.32902 11.1397 9.25 10.9489 9.25 10.75ZM11.125 14.125C11.125 14.3475 11.059 14.565 10.9354 14.75C10.8118 14.935 10.6361 15.0792 10.4305 15.1644C10.225 15.2495 9.99876 15.2718 9.78053 15.2284C9.5623 15.185 9.36184 15.0778 9.20451 14.9205C9.04718 14.7632 8.94003 14.5627 8.89662 14.3445C8.85321 14.1262 8.87549 13.9 8.96064 13.6945C9.04579 13.4889 9.18998 13.3132 9.37499 13.1896C9.55999 13.066 9.7775 13 10 13C10.2984 13 10.5845 13.1185 10.7955 13.3295C11.0065 13.5405 11.125 13.8266 11.125 14.125Z" fill="#1A1A1A"/>
</svg>
