<svg width="18" height="15" viewBox="0 0 18 15" fill="none" xmlns="http://www.w3.org/2000/svg">
<path opacity="0.2" d="M16.4999 15H1.49988C1.36861 14.9992 1.23985 14.964 1.12646 14.8978C1.01308 14.8317 0.919039 14.7369 0.853747 14.6231C0.788454 14.5092 0.754196 14.3801 0.754395 14.2489C0.754595 14.1176 0.789245 13.9887 0.854883 13.875C1.4727 12.8062 2.24988 10.1072 2.24988 6.75C2.24988 4.95979 2.96104 3.2429 4.22691 1.97703C5.49278 0.711159 7.20967 0 8.99988 0C10.7901 0 12.507 0.711159 13.7729 1.97703C15.0387 3.2429 15.7499 4.95979 15.7499 6.75C15.7499 10.1081 16.528 12.8062 17.1468 13.875C17.2125 13.9888 17.2471 14.1179 17.2472 14.2493C17.2474 14.3808 17.2129 14.5099 17.1474 14.6239C17.0819 14.7378 16.9876 14.8325 16.874 14.8985C16.7603 14.9645 16.6313 14.9995 16.4999 15Z" fill="#1A1A1A"/>
</svg>
