<svg width="24" height="16" viewBox="0 0 24 16" fill="none" xmlns="http://www.w3.org/2000/svg">
<path d="M14.2501 3.5C14.2501 3.20163 14.3686 2.91549 14.5796 2.70451C14.7906 2.49353 15.0767 2.375 15.3751 2.375H22.8751C23.1735 2.375 23.4596 2.49353 23.6706 2.70451C23.8816 2.91549 24.0001 3.20163 24.0001 3.5C24.0001 3.79837 23.8816 4.08452 23.6706 4.2955C23.4596 4.50648 23.1735 4.625 22.8751 4.625H15.3751C15.0767 4.625 14.7906 4.50648 14.5796 4.2955C14.3686 4.08452 14.2501 3.79837 14.2501 3.5ZM22.8751 6.875H15.3751C15.0767 6.875 14.7906 6.99353 14.5796 7.20451C14.3686 7.41549 14.2501 7.70163 14.2501 8C14.2501 8.29837 14.3686 8.58452 14.5796 8.7955C14.7906 9.00648 15.0767 9.125 15.3751 9.125H22.8751C23.1735 9.125 23.4596 9.00648 23.6706 8.7955C23.8816 8.58452 24.0001 8.29837 24.0001 8C24.0001 7.70163 23.8816 7.41549 23.6706 7.20451C23.4596 6.99353 23.1735 6.875 22.8751 6.875ZM22.8751 11.375H17.6251C17.3267 11.375 17.0406 11.4935 16.8296 11.7045C16.6186 11.9155 16.5001 12.2016 16.5001 12.5C16.5001 12.7984 16.6186 13.0845 16.8296 13.2955C17.0406 13.5065 17.3267 13.625 17.6251 13.625H22.8751C23.1735 13.625 23.4596 13.5065 23.6706 13.2955C23.8816 13.0845 24.0001 12.7984 24.0001 12.5C24.0001 12.2016 23.8816 11.9155 23.6706 11.7045C23.4596 11.4935 23.1735 11.375 22.8751 11.375ZM14.5895 13.7188C14.6264 13.8618 14.6348 14.0107 14.6142 14.157C14.5936 14.3034 14.5443 14.4442 14.4693 14.5714C14.3942 14.6987 14.2949 14.81 14.1768 14.8988C14.0588 14.9877 13.9244 15.0524 13.7813 15.0894C13.6383 15.1263 13.4894 15.1347 13.3431 15.1141C13.1967 15.0935 13.0559 15.0442 12.9287 14.9692C12.8014 14.8941 12.6901 14.7948 12.6013 14.6767C12.5124 14.5587 12.4477 14.4243 12.4107 14.2813C11.8745 12.1972 9.76322 10.625 7.5001 10.625C5.23697 10.625 3.12572 12.1963 2.58947 14.2813C2.55254 14.4243 2.48779 14.5587 2.39892 14.6767C2.31005 14.7948 2.1988 14.8941 2.07153 14.9692C1.94425 15.0442 1.80344 15.0935 1.65714 15.1141C1.51084 15.1347 1.3619 15.1263 1.21885 15.0894C1.07579 15.0524 0.941403 14.9877 0.823368 14.8988C0.705334 14.81 0.605958 14.6987 0.530917 14.5714C0.455876 14.4442 0.406638 14.3034 0.386014 14.157C0.365391 14.0107 0.373786 13.8618 0.41072 13.7188C0.915095 11.7594 2.29416 10.1413 4.07728 9.21875C3.38838 8.53984 2.917 7.67135 2.72311 6.72377C2.52922 5.77618 2.62159 4.79234 2.98846 3.8974C3.35533 3.00246 3.98013 2.23688 4.78336 1.69806C5.58658 1.15923 6.53194 0.871521 7.49916 0.871521C8.46637 0.871521 9.41173 1.15923 10.215 1.69806C11.0182 2.23688 11.643 3.00246 12.0099 3.8974C12.3767 4.79234 12.4691 5.77618 12.2752 6.72377C12.0813 7.67135 11.6099 8.53984 10.921 9.21875C12.706 10.1422 14.0851 11.7603 14.5895 13.7188ZM7.5001 8.375C8.01927 8.375 8.52679 8.22105 8.95847 7.93261C9.39015 7.64417 9.7266 7.2342 9.92528 6.75455C10.124 6.27489 10.1759 5.74709 10.0747 5.23789C9.97337 4.72869 9.72336 4.26096 9.35625 3.89385C8.98914 3.52674 8.52141 3.27673 8.01221 3.17544C7.50301 3.07416 6.97521 3.12614 6.49555 3.32482C6.0159 3.5235 5.60593 3.85995 5.31749 4.29163C5.02905 4.72331 4.8751 5.23083 4.8751 5.75C4.8751 6.09472 4.94299 6.43607 5.07491 6.75455C5.20683 7.07303 5.40019 7.3624 5.64394 7.60616C6.13622 8.09844 6.8039 8.375 7.5001 8.375Z" fill="#1A1A1A"/>
</svg>
